M48
; DRILL file {KiCad 9.0.2} date 2025-10-15T00:42:25+0300
; FORMAT={-:-/ absolute / metric / decimal}
; #@! TF.CreationDate,2025-10-15T00:42:25+03:00
; #@! TF.GenerationSoftware,Kicad,Pcbnew,9.0.2
; #@! TF.FileFunction,Plated,1,2,PTH
FMAT,2
METRIC
; #@! TA.AperFunction,Plated,PTH,ComponentDrill
T1C0.400
; #@! TA.AperFunction,Plated,PTH,ViaDrill
T2C0.600
; #@! TA.AperFunction,Plated,PTH,ComponentDrill
T3C0.600
; #@! TA.AperFunction,Plated,PTH,ComponentDrill
T4C0.900
; #@! TA.AperFunction,Plated,PTH,ComponentDrill
T5C0.920
; #@! TA.AperFunction,Plated,PTH,ComponentDrill
T6C1.000
; #@! TA.AperFunction,Plated,PTH,ComponentDrill
T7C2.200
; #@! TA.AperFunction,Plated,PTH,ComponentDrill
T8C2.330
%
G90
G05
T1
X107.85Y-78.5
X108.333Y-77.333
X108.333Y-79.667
X109.5Y-76.85
X109.5Y-80.15
X110.667Y-77.333
X110.667Y-79.667
X111.15Y-78.5
X157.85Y-133.5
X158.333Y-132.333
X158.333Y-134.667
X159.5Y-131.85
X159.5Y-135.15
X160.667Y-132.333
X160.667Y-134.667
X161.15Y-133.5
T2
X106.4Y-117.7
X106.4Y-121.0
X106.4Y-124.3
X106.4Y-127.3
X106.4Y-130.3
X106.4Y-133.5
X108.3Y-82.5
X108.7Y-87.8
X109.1Y-119.6
X110.9Y-93.4
X111.4Y-136.9
X111.8Y-125.9
X112.5Y-104.3
X113.4Y-120.1
X114.5Y-109.7
X114.5Y-111.3
X114.7Y-136.767
X115.3Y-94.4
X115.4Y-105.4
X116.5Y-113.605
X116.5Y-121.5
X117.0Y-81.4
X117.0Y-83.2
X117.7Y-109.7
X117.7Y-111.4
X118.0Y-136.767
X119.1Y-86.5
X121.3Y-136.767
X124.4Y-136.767
X124.7Y-81.9
X126.0Y-127.7
X126.4Y-110.2
X128.4Y-109.6
X129.5Y-102.0
X131.8Y-118.3
X132.1Y-120.3
X134.6Y-106.0
X138.2Y-115.0
X139.25Y-112.905
X140.5Y-102.0
X140.75Y-107.75
X145.167Y-100.6
X145.2Y-105.1
X146.0Y-136.8
X147.0Y-106.6
X147.0Y-113.4
X149.0Y-119.8
X149.2Y-136.8
X150.3Y-113.1
X151.1Y-127.3
X151.1Y-131.1
X152.4Y-136.8
X157.3Y-83.0
X157.3Y-86.2
X157.4Y-89.3
X157.4Y-96.6
X158.0Y-93.3
X158.8Y-122.1
X159.9Y-83.0
X159.9Y-86.2
X160.0Y-89.3
X162.5Y-83.0
X162.5Y-86.2
X162.6Y-89.3
X162.6Y-122.1
T3
X134.417Y-88.172
X134.417Y-89.172
X134.417Y-90.172
X135.417Y-89.172
X135.917Y-88.172
X135.917Y-90.172
X136.917Y-88.172
X136.917Y-89.172
X136.917Y-90.172
T4
X112.5Y-83.46
X112.5Y-84.73
X112.5Y-86.0
X112.5Y-87.27
X158.46Y-104.075
X158.46Y-110.775
X158.69Y-117.475
X159.73Y-104.075
X159.73Y-110.775
X159.96Y-117.475
X161.0Y-104.075
X161.0Y-110.775
X161.23Y-117.475
X162.27Y-104.075
X162.27Y-110.775
X162.5Y-117.475
T5
X134.8Y-123.39
X134.8Y-125.39
X137.3Y-123.39
X137.3Y-125.39
T6
X121.5Y-82.22
X121.5Y-84.76
X121.5Y-87.3
X121.5Y-89.84
X121.5Y-92.38
X121.5Y-94.92
X121.5Y-97.46
X121.5Y-100.0
X121.5Y-102.54
X121.5Y-105.08
X121.5Y-107.62
X121.5Y-110.16
X121.5Y-112.7
X121.5Y-115.24
X121.5Y-117.78
X121.5Y-120.32
X154.0Y-82.26
X154.0Y-84.8
X154.0Y-87.34
X154.0Y-89.88
X154.0Y-92.42
X154.0Y-94.96
X154.0Y-97.5
X154.0Y-100.04
X154.0Y-102.58
X154.0Y-105.12
X154.0Y-107.66
X154.0Y-110.2
X154.0Y-112.74
X154.0Y-115.28
X154.0Y-117.82
X154.0Y-120.36
T7
X109.5Y-78.5
X159.5Y-133.5
T8
X130.03Y-128.1
X142.07Y-128.1
M30
